<mxfile host="app.diagrams.net" modified="2024-06-29T00:58:17.155Z" agent="Mozilla/5.0 (Windows NT 10.0; Win64; x64; rv:109.0) Gecko/20100101 Firefox/115.0" version="24.6.4" etag="DRYPbFQkGnoV0iTai33G" type="github">
  <diagram name="Page-1" id="8AVV04tJxgXb8D8f6Dwk">
    <mxGraphModel>
      <root>
        <mxCell id="0" />
        <mxCell id="1" parent="0" />
      </root>
    </mxGraphModel>
  </diagram>
</mxfile>
